<?xml version="1.0" standalone="no"?>
<!DOCTYPE svg PUBLIC "-//W3C//DTD SVG 20010904//EN"
 "http://www.w3.org/TR/2001/REC-SVG-20010904/DTD/svg10.dtd">
<svg version="1.0" xmlns="http://www.w3.org/2000/svg"
 width="1836.000000pt" height="1585.000000pt" viewBox="0 0 1836.000000 1585.000000"
 preserveAspectRatio="xMidYMid meet">

<g transform="translate(0.000000,1585.000000) scale(0.100000,-0.100000)"
fill="#000000" stroke="none">
<path d="M1375 15310 l-530 -530 1140 -1140 c985 -985 1138 -1142 1125 -1153
-8 -8 -73 -61 -144 -118 -418 -336 -901 -806 -1270 -1238 -674 -787 -1225
-1683 -1612 -2620 -35 -84 -64 -162 -64 -171 0 -10 30 -90 66 -177 652 -1568
1715 -2958 3063 -4006 1164 -904 2526 -1540 3956 -1846 648 -139 1225 -204
1910 -217 1226 -24 2433 183 3589 613 l228 86 1394 -1394 1394 -1394 530 530
530 530 -7388 7388 -7387 7387 -530 -530z m5346 -6543 c-69 -396 -47 -773 66
-1147 120 -398 329 -745 628 -1045 392 -394 887 -637 1455 -717 122 -17 498
-17 605 0 44 7 118 20 163 29 l84 16 645 -645 644 -645 -149 -66 c-638 -283
-1256 -403 -1887 -367 -409 23 -743 86 -1115 210 -1165 388 -2105 1279 -2554
2419 -421 1067 -385 2214 100 3260 l48 102 643 -643 644 -644 -20 -117z"/>
<path d="M8820 14584 c-929 -51 -1555 -152 -2335 -375 -196 -56 -583 -181
-612 -198 -9 -5 277 -296 885 -904 l898 -896 95 35 c516 192 1121 286 1644
254 518 -31 972 -136 1428 -331 1098 -470 1951 -1405 2320 -2544 187 -575 246
-1196 171 -1788 -35 -282 -121 -635 -217 -895 l-46 -122 1216 -1216 c996 -995
1219 -1214 1234 -1207 9 4 84 66 165 138 832 730 1519 1571 2075 2538 185 321
425 812 558 1139 l51 127 -41 103 c-112 282 -345 769 -506 1056 -782 1401
-1857 2568 -3172 3444 -1430 952 -3023 1496 -4751 1623 -191 14 -914 27 -1060
19z"/>
<path d="M9093 10832 l-43 -7 1306 -1308 c718 -720 1308 -1306 1312 -1302 12
11 7 335 -6 430 -79 575 -318 1062 -716 1461 -451 451 -1051 712 -1671 729
-77 2 -159 0 -182 -3z"/>
</g>
</svg>
