<?xml version="1.0" encoding="iso-8859-1"?>
<!-- Generator: Adobe Illustrator 19.0.0, SVG Export Plug-In . SVG Version: 6.00 Build 0)  -->
<svg version="1.1" id="Layer_1" xmlns="http://www.w3.org/2000/svg" xmlns:xlink="http://www.w3.org/1999/xlink" x="0px" y="0px"
	 viewBox="0 0 512 512" style="enable-background:new 0 0 512 512;" xml:space="preserve">
<path style="fill:#259245;" d="M503.742,386.477V125.523c0-19.155-15.528-34.684-34.684-34.684H42.942
	c-19.155,0-34.684,15.528-34.684,34.684v260.955c0,19.155,15.528,34.684,34.684,34.684h426.116
	C488.213,421.161,503.742,405.633,503.742,386.477z"/>
<g>
	<path style="fill:#FFFFFF;" d="M340.538,313.543h-15.423v-8.195c0-4.561-3.697-8.258-8.258-8.258c-4.561,0-8.258,3.697-8.258,8.258
		v8.195H171.474c-4.561,0-8.258,3.697-8.258,8.258c0,4.561,3.697,8.258,8.258,8.258h137.127v8.195c0,4.561,3.697,8.258,8.258,8.258
		s8.258-3.697,8.258-8.258v-8.195h7.165v0.635c0,4.561,3.697,8.258,8.258,8.258c4.561,0,8.258-3.697,8.258-8.258v-8.893
		C348.796,317.241,345.099,313.543,340.538,313.543z"/>
	<path style="fill:#FFFFFF;" d="M208.262,209.414c4.561,0,8.258-3.697,8.258-8.258v-30.862c0-4.561-3.697-8.258-8.258-8.258
		s-8.258,3.697-8.258,8.258v30.862C200.004,205.717,203.7,209.414,208.262,209.414z"/>
	<path style="fill:#FFFFFF;" d="M208.262,234.449c4.561,0,8.258-3.697,8.258-8.258s-3.697-8.258-8.258-8.258h-18.157v-47.638
		c0-4.561-3.697-8.258-8.258-8.258s-8.258,3.697-8.258,8.258v57.958c0,8.114-6.601,14.715-14.714,14.715
		c-0.333,0-0.664,0.02-0.991,0.059c-3.566-0.26-6.876-1.787-9.404-4.36c-3.196-3.253-8.424-3.298-11.678-0.101
		c-3.253,3.196-3.298,8.425-0.101,11.679c5.848,5.949,13.661,9.264,22.003,9.337c0.024,0,0.047,0,0.072,0
		c0.487,0,0.969-0.043,1.442-0.127c14.501-0.617,26.472-11.168,29.269-25.005h18.776V234.449z"/>
	<path style="fill:#FFFFFF;" d="M369.411,162.036c-4.561,0-8.258,3.697-8.258,8.258v57.958c0,8.114-6.601,14.715-14.714,14.715
		c-2.167,0-4.247,0.851-5.792,2.372l-0.099,0.098c-3.251,3.199-3.294,8.427-0.095,11.678c1.616,1.643,3.751,2.466,5.887,2.466
		c0.483,0,0.968-0.042,1.447-0.127c16.599-0.708,29.883-14.432,29.883-31.202v-57.958
		C377.669,165.734,373.971,162.036,369.411,162.036z"/>
	<path style="fill:#FFFFFF;" d="M293.509,182.27c-2.975,0-5.799-1.749-7.748-4.797c-1.516-2.373-4.139-3.809-6.954-3.81
		c-0.001,0-0.002,0-0.002,0c-2.815,0-5.437,1.435-6.954,3.805c-1.954,3.051-4.781,4.802-7.756,4.802
		c-2.975,0-5.798-1.749-7.747-4.797c-1.517-2.374-4.14-3.81-6.959-3.81c0,0-0.001,0-0.002,0c-2.819,0.001-5.442,1.439-6.958,3.814
		c-1.945,3.047-4.77,4.793-7.75,4.793c-4.561,0-8.258,3.697-8.258,8.258s3.697,8.258,8.258,8.258c5.299,0,10.41-1.762,14.713-4.933
		c4.303,3.171,9.409,4.933,14.704,4.933c5.295,0,10.403-1.763,14.708-4.936c4.304,3.173,9.412,4.936,14.708,4.936
		c4.561,0,8.258-3.697,8.258-8.258S298.07,182.27,293.509,182.27z"/>
	<path style="fill:#FFFFFF;" d="M319.924,165.638c-4.561,0-8.258,3.697-8.258,8.258v77.427c0,4.561,3.697,8.258,8.258,8.258
		c4.561,0,8.258-3.697,8.258-8.258v-77.427C328.182,169.335,324.485,165.638,319.924,165.638z"/>
	<path style="fill:#FFFFFF;" d="M293.509,208.685h-39.622c-4.561,0-8.258,3.697-8.258,8.258v11.309
		c0,8.114-6.601,14.715-14.714,14.715c-0.417,0-0.831,0.032-1.238,0.094l-21.38-0.094c-0.012,0-0.024,0-0.036,0
		c-4.543,0-8.237,3.673-8.257,8.222c-0.02,4.561,3.661,8.275,8.222,8.294l22.553,0.098c0.012,0,0.024,0,0.036,0
		c0.487,0,0.969-0.043,1.441-0.127c8.542-0.363,16.201-4.18,21.63-10.079c5.427,5.898,13.084,9.714,21.624,10.079
		c0.479,0.085,0.962,0.127,1.447,0.127c2.128,0,4.257-0.818,5.872-2.45c3.207-3.243,3.179-8.471-0.064-11.679l-0.099-0.098
		c-1.546-1.529-3.632-2.387-5.808-2.387c-8.114,0-14.715-6.601-14.715-14.715v-3.051h31.364c4.561,0,8.258-3.697,8.258-8.258
		C301.767,212.382,298.07,208.685,293.509,208.685z"/>
	<path style="fill:#FFFFFF;" d="M343.937,198.786c4.561,0,8.258-3.697,8.258-8.258v-16.632c0-4.561-3.697-8.258-8.258-8.258
		c-4.561,0-8.258,3.697-8.258,8.258v16.632C335.679,195.089,339.377,198.786,343.937,198.786z"/>
	<path style="fill:#FFFFFF;" d="M155.431,225.201c4.561,0,8.258-3.697,8.258-8.258v-46.649c0-4.561-3.697-8.258-8.258-8.258
		c-4.561,0-8.258,3.697-8.258,8.258v46.649C147.173,221.503,150.87,225.201,155.431,225.201z"/>
</g>
<path style="fill:#111A21;" d="M468.324,429.419H43.676C19.593,429.419,0,409.827,0,385.743V126.256
	c0-24.083,19.593-43.675,43.676-43.675h424.648c24.083,0,43.675,19.593,43.675,43.675v259.487
	C512,409.827,492.407,429.419,468.324,429.419z M43.676,99.097c-14.977,0-27.16,12.183-27.16,27.159v259.487
	c0,14.977,12.183,27.16,27.16,27.16h424.648c14.976,0,27.159-12.183,27.159-27.16V126.256c0-14.976-12.183-27.159-27.16-27.159
	H43.676z"/>
<g>
</g>
<g>
</g>
<g>
</g>
<g>
</g>
<g>
</g>
<g>
</g>
<g>
</g>
<g>
</g>
<g>
</g>
<g>
</g>
<g>
</g>
<g>
</g>
<g>
</g>
<g>
</g>
<g>
</g>
</svg>
